# xmcd
#
# Track frame offsets: 
#        150
#        10648
#        32710
#        53997
#        68876
#        87484
#        109541
#        128775
#        147599
#        159024
#        172983
#        192377
#        205609
#        223577
#
# Disc length: 3145 seconds
#
# Revision: 0
# Processed by: cddbd v1.5.2PL0 Copyright (c) Steve Scherf et al.
# Submitted via: ExactAudioCopy v0.95a5
#
DISCID=bc0c470e
DTITLE=Fire the Saddle - four feet off the ground
DYEAR=2004
DGENRE=Bluegrass
TTITLE0=Too Cold to Dance
TTITLE1=Singing My Song
TTITLE2=The High Roller
TTITLE3=Faith in Me
TTITLE4=All's Well
TTITLE5=Silk and Oil
TTITLE6=On a Summer's Day
TTITLE7=Going Away
TTITLE8=Contact
TTITLE9=Go On
TTITLE10=At Any Cost
TTITLE11=In the Dark
TTITLE12=Apartment
TTITLE13=Nothing Wakes Me Up
EXTD=
EXTT0=
EXTT1=
EXTT2=
EXTT3=
EXTT4=
EXTT5=
EXTT6=
EXTT7=
EXTT8=
EXTT9=
EXTT10=
EXTT11=
EXTT12=
EXTT13=
PLAYORDER=
